<mxfile host="app.diagrams.net" modified="2024-04-16T16:29:49.287Z" agent="Mozilla/5.0 (Macintosh; Intel Mac OS X 10_15_7) AppleWebKit/537.36 (KHTML, like Gecko) Chrome/121.0.0.0 Safari/537.36" etag="0fqrNOZ9WbEE-yaS3BJ2" version="24.2.5" type="github">
  <diagram id="f106602c-feb2-e66a-4537-3a34d633f6aa" name="Page-1">
    <mxGraphModel dx="1194" dy="661" grid="1" gridSize="10" guides="1" tooltips="1" connect="0" arrows="0" fold="1" page="1" pageScale="1" pageWidth="1169" pageHeight="827" background="none" math="0" shadow="0">
      <root>
        <mxCell id="0" />
        <mxCell id="1" parent="0" />
        <mxCell id="14" value="Flask Backend Server" style="fillColor=#F6F6F6;strokeColor=none;shadow=0;gradientColor=none;fontSize=14;align=left;spacing=10;fontColor=#717171;9E9E9E;verticalAlign=top;spacingTop=-4;fontStyle=0;spacingLeft=40;html=1;" parent="1" vertex="1">
          <mxGeometry x="380" y="109.5" width="450" height="580" as="geometry" />
        </mxCell>
        <mxCell id="5VtIrjdL7ITDBXHos8JG-50" value="          Database" style="strokeColor=#dddddd;shadow=1;strokeWidth=1;rounded=1;absoluteArcSize=1;arcSize=2;" parent="14" vertex="1">
          <mxGeometry x="270" y="259.5" width="120" height="60" as="geometry" />
        </mxCell>
        <mxCell id="5VtIrjdL7ITDBXHos8JG-48" value="" style="strokeColor=#dddddd;shadow=1;strokeWidth=1;rounded=1;absoluteArcSize=1;arcSize=2;" parent="14" vertex="1">
          <mxGeometry x="25" y="259.5" width="180" height="60" as="geometry" />
        </mxCell>
        <mxCell id="5VtIrjdL7ITDBXHos8JG-49" value="&lt;font color=&quot;#000000&quot;&gt;Backend API&lt;/font&gt;&lt;br&gt;Api Endpoints" style="editableCssRules=.*;html=1;fontColor=#999999;shape=image;verticalLabelPosition=middle;verticalAlign=middle;labelPosition=right;align=left;spacingLeft=20;part=1;points=[];imageAspect=0;image=https://flask.github.net.cn/Application/Home/View/Public/img/flask-icon.png;" parent="5VtIrjdL7ITDBXHos8JG-48" vertex="1">
          <mxGeometry width="40" height="40" relative="1" as="geometry">
            <mxPoint x="15" y="11" as="offset" />
          </mxGeometry>
        </mxCell>
        <mxCell id="25" value="" style="edgeStyle=orthogonalEdgeStyle;fontSize=12;html=1;endArrow=blockThin;endFill=1;rounded=0;strokeWidth=2;endSize=4;startSize=4;dashed=0;strokeColor=#4284F3;startArrow=blockThin;startFill=1;" parent="14" source="5VtIrjdL7ITDBXHos8JG-48" target="5VtIrjdL7ITDBXHos8JG-50" edge="1">
          <mxGeometry width="100" relative="1" as="geometry">
            <mxPoint x="-60" y="300" as="sourcePoint" />
            <mxPoint x="27" y="300" as="targetPoint" />
            <Array as="points" />
          </mxGeometry>
        </mxCell>
        <mxCell id="lxp2ChCTbC3Arnrb9fhD-28" value="" style="sketch=0;outlineConnect=0;fontColor=#232F3E;gradientColor=none;fillColor=#C925D1;strokeColor=none;dashed=0;verticalLabelPosition=bottom;verticalAlign=top;align=center;html=1;fontSize=12;fontStyle=0;aspect=fixed;pointerEvents=1;shape=mxgraph.aws4.rds_mysql_instance;" vertex="1" parent="14">
          <mxGeometry x="280" y="272" width="35" height="35" as="geometry" />
        </mxCell>
        <mxCell id="2" value="Architecture: Web Applicatoin and Endpoints" style="fillColor=#4DA1F5;strokeColor=none;shadow=1;gradientColor=none;fontSize=14;align=left;spacingLeft=50;fontColor=#ffffff;html=1;" parent="1" vertex="1">
          <mxGeometry x="200" y="50" width="765" height="40" as="geometry" />
        </mxCell>
        <mxCell id="5" value="" style="edgeStyle=elbowEdgeStyle;fontSize=12;html=1;endArrow=oval;endFill=1;rounded=0;strokeWidth=2;endSize=6;startSize=4;dashed=0;strokeColor=#4284F3;elbow=vertical;" parent="1" edge="1">
          <mxGeometry width="100" relative="1" as="geometry">
            <mxPoint x="270" y="239.95348837209303" as="sourcePoint" />
            <mxPoint x="280" y="240" as="targetPoint" />
          </mxGeometry>
        </mxCell>
        <mxCell id="8" value="" style="edgeStyle=elbowEdgeStyle;fontSize=12;html=1;endArrow=oval;endFill=1;rounded=0;strokeWidth=2;endSize=6;startSize=4;dashed=0;strokeColor=#4284F3;elbow=vertical;" parent="1" edge="1">
          <mxGeometry width="100" relative="1" as="geometry">
            <mxPoint x="270" y="399.93959731543623" as="sourcePoint" />
            <mxPoint x="280" y="400" as="targetPoint" />
          </mxGeometry>
        </mxCell>
        <mxCell id="11" value="" style="edgeStyle=elbowEdgeStyle;fontSize=12;html=1;endArrow=oval;endFill=1;rounded=0;strokeWidth=2;endSize=6;startSize=4;dashed=0;strokeColor=#4284F3;elbow=vertical;" parent="1" edge="1">
          <mxGeometry width="100" relative="1" as="geometry">
            <mxPoint x="270" y="549.989247311828" as="sourcePoint" />
            <mxPoint x="280" y="550" as="targetPoint" />
            <Array as="points" />
          </mxGeometry>
        </mxCell>
        <mxCell id="16" value="" style="rounded=1;absoluteArcSize=1;arcSize=2;html=1;strokeColor=none;gradientColor=none;shadow=0;dashed=0;strokeColor=none;fontSize=12;fontColor=#9E9E9E;align=left;verticalAlign=top;spacing=10;spacingTop=-4;fillColor=#E0E0E0;" parent="1" vertex="1">
          <mxGeometry x="280" y="710" width="670" height="30" as="geometry" />
        </mxCell>
        <mxCell id="18" value="" style="edgeStyle=orthogonalEdgeStyle;fontSize=12;html=1;endArrow=blockThin;endFill=1;rounded=0;strokeWidth=2;endSize=4;startSize=4;dashed=0;strokeColor=#4284F3;startArrow=blockThin;startFill=1;" parent="1" edge="1">
          <mxGeometry width="100" relative="1" as="geometry">
            <mxPoint x="290" y="400" as="sourcePoint" />
            <mxPoint x="377" y="400" as="targetPoint" />
            <Array as="points">
              <mxPoint x="330" y="400" />
              <mxPoint x="330" y="400" />
            </Array>
          </mxGeometry>
        </mxCell>
        <mxCell id="19" value="" style="fontSize=12;html=1;endArrow=blockThin;endFill=1;rounded=0;strokeWidth=2;endSize=4;startSize=4;dashed=0;strokeColor=#4284F3;startArrow=blockThin;startFill=1;edgeStyle=orthogonalEdgeStyle;" parent="1" edge="1">
          <mxGeometry width="100" relative="1" as="geometry">
            <mxPoint x="290" y="240" as="sourcePoint" />
            <mxPoint x="290" y="550" as="targetPoint" />
            <Array as="points">
              <mxPoint x="330" y="240" />
              <mxPoint x="330" y="550" />
            </Array>
          </mxGeometry>
        </mxCell>
        <mxCell id="20" value="" style="edgeStyle=orthogonalEdgeStyle;fontSize=12;html=1;endArrow=oval;endFill=1;rounded=0;strokeWidth=2;endSize=6;startSize=4;dashed=0;strokeColor=#4284F3;exitX=0;exitY=0.149;exitPerimeter=0;" parent="1" edge="1">
          <mxGeometry width="100" relative="1" as="geometry">
            <mxPoint x="400.09302325581393" y="382.8604651162791" as="sourcePoint" />
            <mxPoint x="390" y="383" as="targetPoint" />
          </mxGeometry>
        </mxCell>
        <mxCell id="21" value="" style="edgeStyle=orthogonalEdgeStyle;fontSize=12;html=1;endArrow=oval;endFill=1;rounded=0;strokeWidth=2;endSize=6;startSize=4;dashed=0;strokeColor=#4284F3;" parent="1" edge="1">
          <mxGeometry width="100" relative="1" as="geometry">
            <mxPoint x="400" y="400" as="sourcePoint" />
            <mxPoint x="389.9902912621359" y="399.9126213592233" as="targetPoint" />
          </mxGeometry>
        </mxCell>
        <mxCell id="22" value="" style="edgeStyle=orthogonalEdgeStyle;fontSize=12;html=1;endArrow=oval;endFill=1;rounded=0;strokeWidth=2;endSize=6;startSize=4;dashed=0;strokeColor=#4284F3;" parent="1" edge="1">
          <mxGeometry width="100" relative="1" as="geometry">
            <mxPoint x="400" y="416.04651162790697" as="sourcePoint" />
            <mxPoint x="389.9902912621359" y="415.91262135922335" as="targetPoint" />
          </mxGeometry>
        </mxCell>
        <mxCell id="3" value="PC1" style="strokeColor=#dddddd;fillColor=#ffffff;shadow=1;strokeWidth=1;rounded=1;absoluteArcSize=1;arcSize=2;labelPosition=center;verticalLabelPosition=middle;align=center;verticalAlign=bottom;spacingLeft=0;fontColor=#999999;fontSize=12;whiteSpace=wrap;spacingBottom=2;html=1;" parent="1" vertex="1">
          <mxGeometry x="200" y="198" width="70" height="85" as="geometry" />
        </mxCell>
        <mxCell id="6" value="PC2" style="strokeColor=#dddddd;fillColor=#ffffff;shadow=1;strokeWidth=1;rounded=1;absoluteArcSize=1;arcSize=2;labelPosition=center;verticalLabelPosition=middle;align=center;verticalAlign=bottom;spacingLeft=0;fontColor=#999999;fontSize=12;whiteSpace=wrap;spacingBottom=2;html=1;" parent="1" vertex="1">
          <mxGeometry x="200" y="357" width="70" height="85" as="geometry" />
        </mxCell>
        <mxCell id="9" value="PC3" style="strokeColor=#dddddd;fillColor=#ffffff;shadow=1;strokeWidth=1;rounded=1;absoluteArcSize=1;arcSize=2;labelPosition=center;verticalLabelPosition=middle;align=center;verticalAlign=bottom;spacingLeft=0;fontColor=#999999;fontSize=12;whiteSpace=wrap;spacingBottom=2;html=1;" parent="1" vertex="1">
          <mxGeometry x="200" y="507.14285714285717" width="70" height="85" as="geometry" />
        </mxCell>
        <mxCell id="lxp2ChCTbC3Arnrb9fhD-25" value="" style="verticalLabelPosition=bottom;html=1;verticalAlign=top;align=center;strokeColor=none;fillColor=#00BEF2;shape=mxgraph.azure.computer;pointerEvents=1;" vertex="1" parent="1">
          <mxGeometry x="210" y="210" width="50" height="45" as="geometry" />
        </mxCell>
        <mxCell id="lxp2ChCTbC3Arnrb9fhD-26" value="" style="verticalLabelPosition=bottom;html=1;verticalAlign=top;align=center;strokeColor=none;fillColor=#00BEF2;shape=mxgraph.azure.laptop;pointerEvents=1;" vertex="1" parent="1">
          <mxGeometry x="210" y="380" width="50" height="30" as="geometry" />
        </mxCell>
        <mxCell id="lxp2ChCTbC3Arnrb9fhD-27" value="" style="sketch=0;aspect=fixed;pointerEvents=1;shadow=0;dashed=0;html=1;strokeColor=none;labelPosition=center;verticalLabelPosition=bottom;verticalAlign=top;align=center;fillColor=#00188D;shape=mxgraph.azure.computer" vertex="1" parent="1">
          <mxGeometry x="210" y="520" width="50" height="45" as="geometry" />
        </mxCell>
        <mxCell id="lxp2ChCTbC3Arnrb9fhD-33" value="Text" style="text;strokeColor=none;align=center;fillColor=none;html=1;verticalAlign=middle;whiteSpace=wrap;rounded=0;" vertex="1" parent="1">
          <mxGeometry x="1040" y="400" width="60" height="30" as="geometry" />
        </mxCell>
      </root>
    </mxGraphModel>
  </diagram>
</mxfile>
